<svg xmlns="http://www.w3.org/2000/svg" width="3840" height="2160" viewBox="0 0 3840 2160">
  <metadata><?xpacket begin="﻿" id="W5M0MpCehiHzreSzNTczkc9d"?>
<x:xmpmeta xmlns:x="adobe:ns:meta/" x:xmptk="Adobe XMP Core 5.6-c138 79.159824, 2016/09/14-01:09:01        ">
   <rdf:RDF xmlns:rdf="http://www.w3.org/1999/02/22-rdf-syntax-ns#">
      <rdf:Description rdf:about=""/>
   </rdf:RDF>
</x:xmpmeta>
                                                                                                    
                                                                                                    
                                                                                                    
                                                                                                    
                                                                                                    
                                                                                                    
                                                                                                    
                                                                                                    
                                                                                                    
                                                                                                    
                                                                                                    
                                                                                                    
                                                                                                    
                                                                                                    
                                                                                                    
                                                                                                    
                                                                                                    
                                                                                                    
                                                                                                    
                                                                                                    
                           
<?xpacket end="w"?></metadata>
<defs>
    <style>
      .cls-1 {
        fill-rule: evenodd;
      }
    </style>
  </defs>
  <path id="Color_Fill_1" data-name="Color Fill 1" class="cls-1" d="M0,0H3840V1518c-6.14-.29-11.66-4.03-18-2-7.24,2.32-15.18,10.73-20,16-1.75-.63-0.97-0.19-2-1-2.97-.96-15.3-8.82-17-11-1.51-1.93-1.07-5.59-3-7-3.33-.33-6.67-0.67-10-1q-4.995-5.505-10-11c-3.06-2.06-7.06-1.92-10-4q-3-3.495-6-7c-3.78-1.72-8.97.91-12-1-8.04-5.06-12.62-18.5-24-20-9.29-5.65-36.33,2.79-47-2-3.38-1.52-9.77-3.66-13-6-5.28-3.83-7.28-12.53-14-15-6.28-2.31-11.18-.24-18-2-3.02-.78-6.98-3.21-10-4h-8c-3.43-1.11-5.74-5.46-12-4-6.15,1.44-15.17,5.36-22,7-8.33,2-17.45-3.72-24-3-3.19.35-8.85,3.22-12,4-13.47,3.32-26.67-1.77-38-1-10.51,16.34-28.7,17.69-47,8-3.14-1.66-6.06-6.45-9-8h-4c-6.55-2.74-14.8-8.6-22-11-6.6-2.2-11.7.18-18-2-3.92-1.35-9.15-4.77-14-6h-14c-6.44-2.17-10.84-9.44-16-13-8.8-6.06-18.23-9.76-27-16-4.12-2.93-5.74-6.75-12-8-4.32,2.94-6.91-1.44-13,1l-4,4h-10l-4,4c-4.93,1.98-9.28-2.07-12,2,0.88,1.29.89,2.47,1,5-3.08,1.94-4.81,3.87-9,5-0.38-4.25-.84-4.67-4-6-2.94,4.34-17.48,6.12-28,6v-4c-4.28-2.82-6.02-8.08-10-11-2.79-2.05-5.68-2.6-8-5h-14c-3.93,1.35-4.93,6.35-12,5-6.18-1.18-17.1-7.24-20-6-7.66,2.95-19.57,20.93-23,29q-0.495,7.005-1,14c-1.91,5.47-10.4,16.54-18,17-2.11-4.24-3.1-9.29-8-11-1.18-.8-1.68-0.77-4-1-3.75,4.58-10.78,4.83-13,11-2.63,4.56.34,8.8-5,11-1.18.8-1.68,0.77-4,1v4c-2.9,1.9-5.09,5.29-8,7-2.67.67-5.33,1.33-8,2-2.28,1.7-2.31,6.61-5,8-4.35,2.25-7.17,1.15-11,4-4.17,3.09-4.98,9.85-10,12-5.36,3.64-11.81-1.72-16-3,0.2,4.15.6,6.43-2,8-4.97-4.6-23.82-2.33-32-4,0.2,4.15.6,6.43-2,8-4.34-3.91-7.18-1.67-14-4-2.24-.77-4.24-4.11-6-5-8.54-4.29-16.44-5.05-24-10-17.98-11.77-32.49-28-50-40-5.55-3.81-11.95-5.68-17-10-1.71-1.47-3.07-4.83-5-6-3.16-1.92-6.38-1.68-9-4-3.18-2.82-5.42-7.61-9-10-4.21-2.81-11.23-1.21-16-4-3.78-2.21-5.85-7.12-9-10-3.92-3.57-9.99-4.48-14-8-1.84-1.61-2.86-4.62-5-6-2.89-1.87-6.5-1.8-9-4-2.36-2.08-3.63-5.94-6-8-4.29-3.74-13.71-2.26-18-6-5.93-5.17-10.19-12.68-16-18-6.03-5.52-13.87-8.57-20-14-4.92-4.36-9.5-10.24-15-14-7.23-4.94-15.31-7.66-23-12-3.07-1.73-6.07-6.47-9-8-6.45-3.36-12.41-2.64-19-6-6.71-3.42-10.66-11.11-16-16-8.21-7.52-18.17-13.21-27-20-6.78-5.21-8.6-13.96-19-16-2.63,4.16-7.57,6.96-10,11-0.67,3-1.33,6-2,9-1.16,2.28-4.7,4.77-6,7-4.85,8.28-6.97,17.1-13,24-1.75-.63-0.97-0.19-2-1-5.61-4.17-4.32-16.85-9-22-6.05-6.66-14.16-7.07-20-12-3.85-3.25-9.97-7.99-13-12-1.88-2.5-2.78-5.89-5-8-3.65-3.47-7.28-.99-13-3-2.73-.96-5.28-5-8-6-3.02-1.11-5.66.32-8-1-1.8-1.01-3.91-4.29-6-5h-14c-5.94-2.08-5.52-9.9-10-13-4.72-3.26-10.93-2.39-15-6-11.9-10.57-6.62-22.58-10-41-3.49-1.53-8.38-3.43-11-6-3.85,1.1-7.16,4.14-10,3-4.51-1.93-3.48-6.08-8-8-3.32-2.17-12.86-1.13-18-1,0.01-2.72-.04-4.6-1-6-1.19-3.84-2.21-4.65-7-5-1.9,1.92-3.99,2.92-6,2-8.12-1.64-9.58-12.23-16-16-6.74-3.96-15.18-.74-24-3-14.45-3.7-17.83-8.38-26-18-1.75.63-.97,0.19-2,1-8.71,3.33-6.72,16.6-16,20-1.69,1.14-4.9,1.07-8,1l-10-10c-6.88-1.91-8.98,6.72-14,5-3.8-1.16-7.55-4.36-10-7-11.6,2.96-10.92,17.45-22,19-2.23-4.93-2.42-11.09-5-17-5.14-11.75-12.72-25.61-17-38v-6c-1.41-3.77-6.48-6.26-8-10-0.33-2.67-.67-5.33-1-8-1.86-3.58-7.27-4.24-10-7-3.01-3.05-3.15-8.78-6-12-3.55-4.01-8.46-4.81-13-8-3.72-2.62-2.43-7.11-5-11-3.01-4.56-11.55-5.77-16-9-7.09-5.15-9.41-16.214-16-22-6.47-5.679-10.94-2.927-17-12-3.68.567-4.32,0.387-8,1v-6c-6.86-.146-15.81-3.558-20-1-4.07,1.407-7.34,6.053-10,9-10.25-.147-27.71-8.293-38-6-2.67.6-10.22,0.8-14,2-1.58.5-4.4,3.6-6,4-4.92,1.237-14.27-6.43-22-3-5.85,2.091-6.83,8.338-11,12-2.93,2.57-7.57,1.742-11,4q-2.505,3.5-5,7c-0.33,2.67-.67,5.33-1,8-11.54.2-16.12,9.22-28,12-0.94-11.76-14.82-14.09-21-21-1.92-2.141-2.32-6.778-5-8h-5c-4.89,5.416-17.44,14.73-27,15-3.54-2.85-10.07-8.531-14-10-5.15-1.922-7.95-.9-12-3-2.65-1.374-5.7-4.829-8-6-2.99-1.518-5.6-.192-8-2-1.71-1.291-2.16-4.721-4-6-4.96-3.441-12.56-3.059-15-9l-3-11c-12.83-7.371-23.83-24.688-40-26-4.86,9.239-7.23,12.127-14,19-15.15-1.339-11.39-21.167-17-32-2.97-5.743-11.38-8.787-15-14-3.24-4.663-4.89-9.377-9-13-4.17-3.678-10.77-4.441-15-8-5.8-4.886-7.23-14.952-13-20-4.47-3.9-11.12-.443-14-5-3.11-4.4-3.93-9.6-7-14-2.51-3.589-8.38-4.65-11-8-2.02-2.58-1.45-4.973-4-7-3.83-2.766-7.71.368-11-1-6.71-2.469-13.68-13.288-16-20-1.06-3.058.45-5.715-1-8q-4.005-3-8-6c-2.18-2.862-3.78-8.432-7-10-5.93-2.886-4.19.947-10-4,0.72-3.08,1.97-6.058,1-8-2.96-6.956-11.83-7.811-13-20-2.72.007-4.6-.039-6-1-8.47-2.842-12.8-12.376-20-16l-12-2c-4.87-3.457-13.05-22.775-17-29-3.75-5.918-13.89-14.529-19-20-7.48-.116-13.65-3.526-20-2-2.67.641-5.63,3.311-8,4l-12,1c-3.44,1.746-2.8,4.855-8,6-7.32-6.941-34.83,8.61-44,12-8.23,3.042-12.97,10.715-20,14l-14,1c-4.28,1.146-8.07,4.849-12,6-13.95,4.088-35.02-2.687-48,3-2.54,1.112-5.46,5.1-8,6h-10c-8.04,3.67-8.67,15.036-20,16-4.68-2.124-9.94,3.678-14,5h-14c-5.82,1.467-12.74,4.752-18,6l-4-1c-8.55,2.324-10.57,14.314-18,17h-18c-3.27,1.06-6.56,4.994-10,6-5.82,1.7-12.62-1.163-16-2-15.25-3.779-27.18,1.971-38,0-2.61-.475-5.98-3.36-8-4-5.75-1.826-16.61.148-21,1-6.09,19.165-21.17,11.925-33,23-14.29-3.357-19.99-12.95-36-12-0.33,2-.67,4-1,6l-3,1c-6.84,4.372-15.52-2.4-20-4-6.11-2.175-12.13,1.964-18,0-1.33-1.333-2.67-2.667-4-4l-14-1v6c-13.671,1.247-12.375,1.235-24-2-3.438,5.175-8.541,6.919-13,11-6.054,5.541-10.914,12.433-16,19-2.844,3.672-8.556,3.907-12,7-2.025,1.819-3.014,5.089-5,7q-1,7-2,14h-4c-8.052-10.6-22.319-15.039-31-25-4-4.584-.134-9.406-6-12-0.962-.589-1.913-0.107-5,0-9.789,13.528-17.735,2.079-28,8-6.1,3.517-9.791,11.455-15,16-3.929,3.428-12.234,2.4-16,6-6.088,5.817-8.933,15.12-15,21v6h-6q-0.5,3-1,6c-10.156,6.613-8.705.731-21,0-1.918,2.048-5.105,2.968-7,5-6.152,6.6-14.846,24.885-25,26-5.8-7.308-13.363-3.124-23-2-5.966.7-7.31-5.337-12-2-8.162,5.807-7.494,22.555-13,31-3.367,5.163-9.763,8.9-13,14-6.842,10.783-10.059,21.447-18,31-3.217,3.871-2.82,11.124-7,14l-17,5c-1.259,2.2-2.18,3.06-3,6h4v3h-2l-18,2-3-3c-6.38-1.67-5.509,5.18-12,4-1.089-.2-3.035-2.4-5-2-6.279,1.29-13.077,9.83-18,13-2,.33-4,0.67-6,1l-10,12c-5.33,2.53-9.2-.3-13,3-6.616,5.75-13.993,17.34-23,20-4.807,1.42-14.646-.15-20,2-3.491,1.4-5.714,6.31-9,8q-5.5,1.005-11,2c-7.919,3.5-18.185,9.28-26,13-5.6,2.66-11.966,1.01-16,0-5.623-1.41-22.623,3.26-26,5-12.048,6.21-13.945,23.77-23,32-12.5,11.36-23.049,1.87-37,8-2.662,1.17-5.437,4.71-8,6-2.351,1.18-5.019-.12-8,1-3.168,1.19-5.285,5.36-8,7-2,.33-4,0.67-6,1-4.035,2.01-3.591,5.25-10,6v-6h-2c-4.949,3.62-22.783,6.85-31,3-3.317-1.55-7.369-5.91-11-7q-7,1.005-14,2v2c0.778,1.06,1.489,3.69,2,5-16.487.79-15.639,12.07-26,16-9.056,3.43-14.372-4.25-22-2-2.532.75-5.254,4.19-8,5-7.643,2.24-22.847.71-32-1-1.873-3.75-3.553-5.44-4-11q-9.5-.495-19-1c-3.739,1.17-7.705,6.15-11,8-2.984,1.67-19.327,4.89-24,5q-4-4.005-8-8c-6.933,1.74-10.848,6.17-18,8v-6H96l-1-6c-1.611-1.01-3.314-3.4-5-4H82c-4-1.33-6.5-6.38-10-8-5.768-2.67-20.906-6.31-26-3a9.773,9.773,0,0,0-7,6c-2.344,3.04-1.371,4.42-1,9-4.963-.53-6.869-3.48-10-4-9.14-1.53-15.674,9.65-22,12-1.79-1.65-2.512-1.75-6-2V0Z"/>
</svg>
